<mxfile host="Electron" agent="Mozilla/5.0 (Windows NT 10.0; Win64; x64) AppleWebKit/537.36 (KHTML, like Gecko) draw.io/25.0.2 Chrome/128.0.6613.186 Electron/32.2.5 Safari/537.36" version="25.0.2" pages="2">
  <diagram name="main" id="-DWpRrdITYq4exo5wvGB">
    <mxGraphModel dx="1290" dy="717" grid="1" gridSize="10" guides="1" tooltips="1" connect="1" arrows="1" fold="1" page="1" pageScale="1" pageWidth="827" pageHeight="1169" math="0" shadow="0">
      <root>
        <mxCell id="0" />
        <mxCell id="1" parent="0" />
        <mxCell id="Wh_3jqzgotkl3UboG9bW-1" value="" style="edgeStyle=orthogonalEdgeStyle;rounded=0;orthogonalLoop=1;jettySize=auto;html=1;" edge="1" parent="1" source="Wh_3jqzgotkl3UboG9bW-2" target="Wh_3jqzgotkl3UboG9bW-4">
          <mxGeometry relative="1" as="geometry" />
        </mxCell>
        <mxCell id="Wh_3jqzgotkl3UboG9bW-2" value="Начало" style="ellipse;whiteSpace=wrap;html=1;" vertex="1" parent="1">
          <mxGeometry x="340" y="40" width="120" height="40" as="geometry" />
        </mxCell>
        <mxCell id="Wh_3jqzgotkl3UboG9bW-3" value="" style="edgeStyle=orthogonalEdgeStyle;rounded=0;orthogonalLoop=1;jettySize=auto;html=1;" edge="1" parent="1" source="Wh_3jqzgotkl3UboG9bW-4" target="Wh_3jqzgotkl3UboG9bW-8">
          <mxGeometry relative="1" as="geometry" />
        </mxCell>
        <mxCell id="Wh_3jqzgotkl3UboG9bW-4" value="int main()" style="shape=process;whiteSpace=wrap;html=1;backgroundOutline=1;" vertex="1" parent="1">
          <mxGeometry x="340" y="120" width="120" height="40" as="geometry" />
        </mxCell>
        <mxCell id="Wh_3jqzgotkl3UboG9bW-5" value="" style="endArrow=none;dashed=1;html=1;rounded=0;" edge="1" parent="1" target="Wh_3jqzgotkl3UboG9bW-6">
          <mxGeometry width="50" height="50" relative="1" as="geometry">
            <mxPoint x="400" y="100" as="sourcePoint" />
            <mxPoint x="560" y="100" as="targetPoint" />
          </mxGeometry>
        </mxCell>
        <mxCell id="Wh_3jqzgotkl3UboG9bW-6" value="&lt;div&gt;#include &amp;lt;iostream&amp;gt;&lt;/div&gt;&lt;div&gt;#include &amp;lt;clocale&amp;gt;&lt;/div&gt;&lt;div&gt;using namespace std;&lt;/div&gt;&lt;div&gt;&lt;br&gt;&lt;/div&gt;&lt;div&gt;int binary_search(int* arr, int n, int key);&lt;/div&gt;" style="strokeWidth=2;html=1;shape=mxgraph.flowchart.annotation_1;align=left;pointerEvents=1;" vertex="1" parent="1">
          <mxGeometry x="540" y="50" width="50" height="100" as="geometry" />
        </mxCell>
        <mxCell id="Wh_3jqzgotkl3UboG9bW-7" value="" style="edgeStyle=orthogonalEdgeStyle;rounded=0;orthogonalLoop=1;jettySize=auto;html=1;" edge="1" parent="1" source="Wh_3jqzgotkl3UboG9bW-8" target="Wh_3jqzgotkl3UboG9bW-11">
          <mxGeometry relative="1" as="geometry" />
        </mxCell>
        <mxCell id="Wh_3jqzgotkl3UboG9bW-8" value="setlocale(LC_ALL, &quot;RU&quot;);" style="whiteSpace=wrap;html=1;" vertex="1" parent="1">
          <mxGeometry x="330" y="200" width="140" height="40" as="geometry" />
        </mxCell>
        <mxCell id="Wh_3jqzgotkl3UboG9bW-9" value="{" style="text;html=1;align=center;verticalAlign=middle;resizable=0;points=[];autosize=1;strokeColor=none;fillColor=none;" vertex="1" parent="1">
          <mxGeometry x="370" y="160" width="30" height="30" as="geometry" />
        </mxCell>
        <mxCell id="Wh_3jqzgotkl3UboG9bW-10" value="" style="edgeStyle=orthogonalEdgeStyle;rounded=0;orthogonalLoop=1;jettySize=auto;html=1;" edge="1" parent="1" source="Wh_3jqzgotkl3UboG9bW-11" target="Wh_3jqzgotkl3UboG9bW-13">
          <mxGeometry relative="1" as="geometry" />
        </mxCell>
        <mxCell id="Wh_3jqzgotkl3UboG9bW-11" value="const int n = 10;" style="whiteSpace=wrap;html=1;" vertex="1" parent="1">
          <mxGeometry x="330" y="260" width="140" height="40" as="geometry" />
        </mxCell>
        <mxCell id="Wh_3jqzgotkl3UboG9bW-12" value="" style="edgeStyle=orthogonalEdgeStyle;rounded=0;orthogonalLoop=1;jettySize=auto;html=1;" edge="1" parent="1" source="Wh_3jqzgotkl3UboG9bW-13" target="Wh_3jqzgotkl3UboG9bW-15">
          <mxGeometry relative="1" as="geometry" />
        </mxCell>
        <mxCell id="Wh_3jqzgotkl3UboG9bW-13" value="int arr[n] = { -10, -5, 2, 4, 4, 6, 9, 15, 20, 95};" style="whiteSpace=wrap;html=1;" vertex="1" parent="1">
          <mxGeometry x="270" y="320" width="260" height="40" as="geometry" />
        </mxCell>
        <mxCell id="Wh_3jqzgotkl3UboG9bW-14" value="" style="edgeStyle=orthogonalEdgeStyle;rounded=0;orthogonalLoop=1;jettySize=auto;html=1;" edge="1" parent="1" source="Wh_3jqzgotkl3UboG9bW-15" target="Wh_3jqzgotkl3UboG9bW-18">
          <mxGeometry relative="1" as="geometry" />
        </mxCell>
        <mxCell id="Wh_3jqzgotkl3UboG9bW-15" value="cout &amp;lt;&amp;lt; &quot;Массив:\n&quot;;" style="shape=parallelogram;perimeter=parallelogramPerimeter;whiteSpace=wrap;html=1;fixedSize=1;" vertex="1" parent="1">
          <mxGeometry x="325" y="380" width="150" height="40" as="geometry" />
        </mxCell>
        <mxCell id="Wh_3jqzgotkl3UboG9bW-16" value="" style="edgeStyle=orthogonalEdgeStyle;rounded=0;orthogonalLoop=1;jettySize=auto;html=1;" edge="1" parent="1" source="Wh_3jqzgotkl3UboG9bW-18" target="Wh_3jqzgotkl3UboG9bW-20">
          <mxGeometry relative="1" as="geometry" />
        </mxCell>
        <mxCell id="Wh_3jqzgotkl3UboG9bW-17" style="edgeStyle=orthogonalEdgeStyle;rounded=0;orthogonalLoop=1;jettySize=auto;html=1;entryX=0.5;entryY=0;entryDx=0;entryDy=0;" edge="1" parent="1" source="Wh_3jqzgotkl3UboG9bW-18" target="Wh_3jqzgotkl3UboG9bW-24">
          <mxGeometry relative="1" as="geometry">
            <mxPoint x="400" y="620" as="targetPoint" />
            <Array as="points">
              <mxPoint x="500" y="460" />
              <mxPoint x="500" y="600" />
              <mxPoint x="400" y="600" />
            </Array>
          </mxGeometry>
        </mxCell>
        <mxCell id="Wh_3jqzgotkl3UboG9bW-18" value="for (int i = 0; i &amp;lt; n; i++)" style="shape=hexagon;perimeter=hexagonPerimeter2;whiteSpace=wrap;html=1;fixedSize=1;" vertex="1" parent="1">
          <mxGeometry x="325" y="440" width="150" height="40" as="geometry" />
        </mxCell>
        <mxCell id="Wh_3jqzgotkl3UboG9bW-19" style="edgeStyle=orthogonalEdgeStyle;rounded=0;orthogonalLoop=1;jettySize=auto;html=1;entryX=0;entryY=0.5;entryDx=0;entryDy=0;" edge="1" parent="1" source="Wh_3jqzgotkl3UboG9bW-20" target="Wh_3jqzgotkl3UboG9bW-18">
          <mxGeometry relative="1" as="geometry">
            <Array as="points">
              <mxPoint x="400" y="580" />
              <mxPoint x="305" y="580" />
              <mxPoint x="305" y="460" />
            </Array>
          </mxGeometry>
        </mxCell>
        <mxCell id="Wh_3jqzgotkl3UboG9bW-20" value="cout &amp;lt;&amp;lt; arr[i] &amp;lt;&amp;lt; &#39; &#39;;" style="shape=parallelogram;perimeter=parallelogramPerimeter;whiteSpace=wrap;html=1;fixedSize=1;" vertex="1" parent="1">
          <mxGeometry x="325" y="520" width="150" height="40" as="geometry" />
        </mxCell>
        <mxCell id="Wh_3jqzgotkl3UboG9bW-21" value="1" style="text;html=1;align=center;verticalAlign=middle;resizable=0;points=[];autosize=1;strokeColor=none;fillColor=none;" vertex="1" parent="1">
          <mxGeometry x="400" y="490" width="30" height="30" as="geometry" />
        </mxCell>
        <mxCell id="Wh_3jqzgotkl3UboG9bW-22" value="0" style="text;html=1;align=center;verticalAlign=middle;resizable=0;points=[];autosize=1;strokeColor=none;fillColor=none;" vertex="1" parent="1">
          <mxGeometry x="475" y="438" width="30" height="30" as="geometry" />
        </mxCell>
        <mxCell id="Wh_3jqzgotkl3UboG9bW-23" value="" style="edgeStyle=orthogonalEdgeStyle;rounded=0;orthogonalLoop=1;jettySize=auto;html=1;" edge="1" parent="1" source="Wh_3jqzgotkl3UboG9bW-24" target="Wh_3jqzgotkl3UboG9bW-26">
          <mxGeometry relative="1" as="geometry" />
        </mxCell>
        <mxCell id="Wh_3jqzgotkl3UboG9bW-24" value="cout &amp;lt;&amp;lt; endl;" style="shape=parallelogram;perimeter=parallelogramPerimeter;whiteSpace=wrap;html=1;fixedSize=1;" vertex="1" parent="1">
          <mxGeometry x="340" y="620" width="120" height="40" as="geometry" />
        </mxCell>
        <mxCell id="Wh_3jqzgotkl3UboG9bW-25" value="" style="edgeStyle=orthogonalEdgeStyle;rounded=0;orthogonalLoop=1;jettySize=auto;html=1;" edge="1" parent="1" source="Wh_3jqzgotkl3UboG9bW-26" target="Wh_3jqzgotkl3UboG9bW-28">
          <mxGeometry relative="1" as="geometry" />
        </mxCell>
        <mxCell id="Wh_3jqzgotkl3UboG9bW-26" value="int key;" style="whiteSpace=wrap;html=1;" vertex="1" parent="1">
          <mxGeometry x="340" y="680" width="120" height="40" as="geometry" />
        </mxCell>
        <mxCell id="Wh_3jqzgotkl3UboG9bW-27" value="" style="edgeStyle=orthogonalEdgeStyle;rounded=0;orthogonalLoop=1;jettySize=auto;html=1;" edge="1" parent="1" source="Wh_3jqzgotkl3UboG9bW-28" target="Wh_3jqzgotkl3UboG9bW-30">
          <mxGeometry relative="1" as="geometry" />
        </mxCell>
        <mxCell id="Wh_3jqzgotkl3UboG9bW-28" value="cout &amp;lt;&amp;lt; &quot;Введите ключ значение: &quot;;" style="shape=parallelogram;perimeter=parallelogramPerimeter;whiteSpace=wrap;html=1;fixedSize=1;" vertex="1" parent="1">
          <mxGeometry x="280" y="740" width="240" height="40" as="geometry" />
        </mxCell>
        <mxCell id="Wh_3jqzgotkl3UboG9bW-29" value="" style="edgeStyle=orthogonalEdgeStyle;rounded=0;orthogonalLoop=1;jettySize=auto;html=1;" edge="1" parent="1" source="Wh_3jqzgotkl3UboG9bW-30" target="Wh_3jqzgotkl3UboG9bW-32">
          <mxGeometry relative="1" as="geometry" />
        </mxCell>
        <mxCell id="Wh_3jqzgotkl3UboG9bW-30" value="cin &amp;gt;&amp;gt; key;" style="shape=parallelogram;perimeter=parallelogramPerimeter;whiteSpace=wrap;html=1;fixedSize=1;" vertex="1" parent="1">
          <mxGeometry x="340" y="800" width="120" height="40" as="geometry" />
        </mxCell>
        <mxCell id="Wh_3jqzgotkl3UboG9bW-31" value="" style="edgeStyle=orthogonalEdgeStyle;rounded=0;orthogonalLoop=1;jettySize=auto;html=1;" edge="1" parent="1" source="Wh_3jqzgotkl3UboG9bW-32" target="Wh_3jqzgotkl3UboG9bW-35">
          <mxGeometry relative="1" as="geometry" />
        </mxCell>
        <mxCell id="Wh_3jqzgotkl3UboG9bW-32" value="int ind = binary_search(arr, n, key);" style="whiteSpace=wrap;html=1;" vertex="1" parent="1">
          <mxGeometry x="280" y="860" width="240" height="40" as="geometry" />
        </mxCell>
        <mxCell id="Wh_3jqzgotkl3UboG9bW-33" value="" style="edgeStyle=orthogonalEdgeStyle;rounded=0;orthogonalLoop=1;jettySize=auto;html=1;exitX=0;exitY=0.5;exitDx=0;exitDy=0;" edge="1" parent="1" source="Wh_3jqzgotkl3UboG9bW-35" target="Wh_3jqzgotkl3UboG9bW-37">
          <mxGeometry relative="1" as="geometry" />
        </mxCell>
        <mxCell id="Wh_3jqzgotkl3UboG9bW-34" style="edgeStyle=orthogonalEdgeStyle;rounded=0;orthogonalLoop=1;jettySize=auto;html=1;" edge="1" parent="1" source="Wh_3jqzgotkl3UboG9bW-35" target="Wh_3jqzgotkl3UboG9bW-40">
          <mxGeometry relative="1" as="geometry">
            <mxPoint x="560" y="999.9999999999998" as="targetPoint" />
          </mxGeometry>
        </mxCell>
        <mxCell id="Wh_3jqzgotkl3UboG9bW-35" value="if (ind &amp;gt;= 0)" style="rhombus;whiteSpace=wrap;html=1;" vertex="1" parent="1">
          <mxGeometry x="345" y="920" width="110" height="40" as="geometry" />
        </mxCell>
        <mxCell id="Wh_3jqzgotkl3UboG9bW-36" style="edgeStyle=orthogonalEdgeStyle;rounded=0;orthogonalLoop=1;jettySize=auto;html=1;exitX=0.5;exitY=1;exitDx=0;exitDy=0;" edge="1" parent="1" source="Wh_3jqzgotkl3UboG9bW-37">
          <mxGeometry relative="1" as="geometry">
            <mxPoint x="400" y="1059.9999999999998" as="targetPoint" />
            <Array as="points">
              <mxPoint x="195" y="1060" />
            </Array>
          </mxGeometry>
        </mxCell>
        <mxCell id="Wh_3jqzgotkl3UboG9bW-37" value="cout &amp;lt;&amp;lt; &quot;Массив содержит искомый элемент по индексу: &quot; &amp;lt;&amp;lt; ind &amp;lt;&amp;lt; endl;" style="shape=parallelogram;perimeter=parallelogramPerimeter;whiteSpace=wrap;html=1;fixedSize=1;" vertex="1" parent="1">
          <mxGeometry x="45" y="1000" width="300" height="40" as="geometry" />
        </mxCell>
        <mxCell id="Wh_3jqzgotkl3UboG9bW-38" value="1" style="text;html=1;align=center;verticalAlign=middle;resizable=0;points=[];autosize=1;strokeColor=none;fillColor=none;" vertex="1" parent="1">
          <mxGeometry x="195" y="910" width="30" height="30" as="geometry" />
        </mxCell>
        <mxCell id="Wh_3jqzgotkl3UboG9bW-39" style="edgeStyle=orthogonalEdgeStyle;rounded=0;orthogonalLoop=1;jettySize=auto;html=1;exitX=0.5;exitY=1;exitDx=0;exitDy=0;" edge="1" parent="1" source="Wh_3jqzgotkl3UboG9bW-40">
          <mxGeometry relative="1" as="geometry">
            <mxPoint x="400" y="1059.9999999999998" as="targetPoint" />
            <Array as="points">
              <mxPoint x="600" y="1060" />
            </Array>
          </mxGeometry>
        </mxCell>
        <mxCell id="Wh_3jqzgotkl3UboG9bW-40" value="cout &amp;lt;&amp;lt; &quot;Массив не содержит искомый элемент&quot; &amp;lt;&amp;lt; endl;" style="shape=parallelogram;perimeter=parallelogramPerimeter;whiteSpace=wrap;html=1;fixedSize=1;" vertex="1" parent="1">
          <mxGeometry x="470" y="1000" width="260" height="40" as="geometry" />
        </mxCell>
        <mxCell id="Wh_3jqzgotkl3UboG9bW-41" value="0" style="text;html=1;align=center;verticalAlign=middle;resizable=0;points=[];autosize=1;strokeColor=none;fillColor=none;" vertex="1" parent="1">
          <mxGeometry x="575" y="910" width="30" height="30" as="geometry" />
        </mxCell>
        <mxCell id="Wh_3jqzgotkl3UboG9bW-42" value="" style="endArrow=classic;html=1;rounded=0;entryX=0.5;entryY=0;entryDx=0;entryDy=0;" edge="1" parent="1" target="Wh_3jqzgotkl3UboG9bW-43">
          <mxGeometry width="50" height="50" relative="1" as="geometry">
            <mxPoint x="400" y="1060" as="sourcePoint" />
            <mxPoint x="400" y="1080" as="targetPoint" />
          </mxGeometry>
        </mxCell>
        <mxCell id="Wh_3jqzgotkl3UboG9bW-43" value="return 0;" style="ellipse;whiteSpace=wrap;html=1;" vertex="1" parent="1">
          <mxGeometry x="340" y="1080" width="120" height="40" as="geometry" />
        </mxCell>
        <mxCell id="Wh_3jqzgotkl3UboG9bW-44" value="}" style="text;html=1;align=center;verticalAlign=middle;resizable=0;points=[];autosize=1;strokeColor=none;fillColor=none;" vertex="1" parent="1">
          <mxGeometry x="400" y="1120" width="30" height="30" as="geometry" />
        </mxCell>
      </root>
    </mxGraphModel>
  </diagram>
  <diagram id="sib49OxGQsSJUuIEdI8w" name="binary_search">
    <mxGraphModel dx="1229" dy="683" grid="1" gridSize="10" guides="1" tooltips="1" connect="1" arrows="1" fold="1" page="1" pageScale="1" pageWidth="827" pageHeight="1169" math="0" shadow="0">
      <root>
        <mxCell id="0" />
        <mxCell id="1" parent="0" />
        <mxCell id="rbbXoeVL8-GsxYeTW-SQ-3" value="" style="edgeStyle=orthogonalEdgeStyle;rounded=0;orthogonalLoop=1;jettySize=auto;html=1;" edge="1" parent="1" source="rbbXoeVL8-GsxYeTW-SQ-1" target="rbbXoeVL8-GsxYeTW-SQ-2">
          <mxGeometry relative="1" as="geometry" />
        </mxCell>
        <mxCell id="rbbXoeVL8-GsxYeTW-SQ-1" value="int binary_search(int* arr, int n, int key)" style="shape=process;whiteSpace=wrap;html=1;backgroundOutline=1;size=0.038461538461538464;" vertex="1" parent="1">
          <mxGeometry x="280" y="40" width="240" height="40" as="geometry" />
        </mxCell>
        <mxCell id="rbbXoeVL8-GsxYeTW-SQ-6" value="" style="edgeStyle=orthogonalEdgeStyle;rounded=0;orthogonalLoop=1;jettySize=auto;html=1;" edge="1" parent="1" source="rbbXoeVL8-GsxYeTW-SQ-2" target="rbbXoeVL8-GsxYeTW-SQ-5">
          <mxGeometry relative="1" as="geometry" />
        </mxCell>
        <mxCell id="rbbXoeVL8-GsxYeTW-SQ-2" value="int left = 0, right = n - 1;" style="whiteSpace=wrap;html=1;" vertex="1" parent="1">
          <mxGeometry x="330" y="120" width="140" height="40" as="geometry" />
        </mxCell>
        <mxCell id="rbbXoeVL8-GsxYeTW-SQ-4" value="{" style="text;html=1;align=center;verticalAlign=middle;resizable=0;points=[];autosize=1;strokeColor=none;fillColor=none;" vertex="1" parent="1">
          <mxGeometry x="370" y="80" width="30" height="30" as="geometry" />
        </mxCell>
        <mxCell id="rbbXoeVL8-GsxYeTW-SQ-8" value="" style="edgeStyle=orthogonalEdgeStyle;rounded=0;orthogonalLoop=1;jettySize=auto;html=1;" edge="1" parent="1" source="rbbXoeVL8-GsxYeTW-SQ-5" target="rbbXoeVL8-GsxYeTW-SQ-7">
          <mxGeometry relative="1" as="geometry" />
        </mxCell>
        <mxCell id="xaztZXbOCxgPHAclLVbQ-19" style="edgeStyle=orthogonalEdgeStyle;rounded=0;orthogonalLoop=1;jettySize=auto;html=1;entryX=0.5;entryY=0;entryDx=0;entryDy=0;" edge="1" parent="1" source="rbbXoeVL8-GsxYeTW-SQ-5" target="xaztZXbOCxgPHAclLVbQ-18">
          <mxGeometry relative="1" as="geometry" />
        </mxCell>
        <mxCell id="rbbXoeVL8-GsxYeTW-SQ-5" value="while (left &amp;lt;= right)" style="rhombus;whiteSpace=wrap;html=1;" vertex="1" parent="1">
          <mxGeometry x="320" y="200" width="160" height="40" as="geometry" />
        </mxCell>
        <mxCell id="rbbXoeVL8-GsxYeTW-SQ-12" value="" style="edgeStyle=orthogonalEdgeStyle;rounded=0;orthogonalLoop=1;jettySize=auto;html=1;" edge="1" parent="1" source="rbbXoeVL8-GsxYeTW-SQ-7" target="rbbXoeVL8-GsxYeTW-SQ-11">
          <mxGeometry relative="1" as="geometry" />
        </mxCell>
        <mxCell id="rbbXoeVL8-GsxYeTW-SQ-7" value="int mid = (left + right) / 2;" style="whiteSpace=wrap;html=1;" vertex="1" parent="1">
          <mxGeometry x="330" y="280" width="140" height="40" as="geometry" />
        </mxCell>
        <mxCell id="rbbXoeVL8-GsxYeTW-SQ-9" value="{" style="text;html=1;align=center;verticalAlign=middle;resizable=0;points=[];autosize=1;strokeColor=none;fillColor=none;" vertex="1" parent="1">
          <mxGeometry x="370" y="240" width="30" height="30" as="geometry" />
        </mxCell>
        <mxCell id="rbbXoeVL8-GsxYeTW-SQ-10" value="1" style="text;html=1;align=center;verticalAlign=middle;resizable=0;points=[];autosize=1;strokeColor=none;fillColor=none;" vertex="1" parent="1">
          <mxGeometry x="400" y="250" width="30" height="30" as="geometry" />
        </mxCell>
        <mxCell id="rbbXoeVL8-GsxYeTW-SQ-13" style="edgeStyle=orthogonalEdgeStyle;rounded=0;orthogonalLoop=1;jettySize=auto;html=1;entryX=0.5;entryY=0;entryDx=0;entryDy=0;" edge="1" parent="1" source="rbbXoeVL8-GsxYeTW-SQ-11" target="xaztZXbOCxgPHAclLVbQ-1">
          <mxGeometry relative="1" as="geometry">
            <mxPoint x="240" y="440.0000000000001" as="targetPoint" />
          </mxGeometry>
        </mxCell>
        <mxCell id="xaztZXbOCxgPHAclLVbQ-4" value="" style="edgeStyle=orthogonalEdgeStyle;rounded=0;orthogonalLoop=1;jettySize=auto;html=1;exitX=1;exitY=0.5;exitDx=0;exitDy=0;" edge="1" parent="1" source="rbbXoeVL8-GsxYeTW-SQ-11" target="xaztZXbOCxgPHAclLVbQ-3">
          <mxGeometry relative="1" as="geometry" />
        </mxCell>
        <mxCell id="rbbXoeVL8-GsxYeTW-SQ-11" value="if (arr[mid] == key)" style="rhombus;whiteSpace=wrap;html=1;" vertex="1" parent="1">
          <mxGeometry x="320" y="360" width="160" height="40" as="geometry" />
        </mxCell>
        <mxCell id="xaztZXbOCxgPHAclLVbQ-14" style="edgeStyle=orthogonalEdgeStyle;rounded=0;orthogonalLoop=1;jettySize=auto;html=1;exitX=0.5;exitY=1;exitDx=0;exitDy=0;" edge="1" parent="1" source="xaztZXbOCxgPHAclLVbQ-1">
          <mxGeometry relative="1" as="geometry">
            <mxPoint x="400" y="580" as="targetPoint" />
            <Array as="points">
              <mxPoint x="240" y="580" />
              <mxPoint x="400" y="580" />
            </Array>
          </mxGeometry>
        </mxCell>
        <mxCell id="xaztZXbOCxgPHAclLVbQ-1" value="return mid;" style="ellipse;whiteSpace=wrap;html=1;" vertex="1" parent="1">
          <mxGeometry x="180" y="440" width="120" height="40" as="geometry" />
        </mxCell>
        <mxCell id="xaztZXbOCxgPHAclLVbQ-2" value="1" style="text;html=1;align=center;verticalAlign=middle;resizable=0;points=[];autosize=1;strokeColor=none;fillColor=none;" vertex="1" parent="1">
          <mxGeometry x="240" y="350" width="30" height="30" as="geometry" />
        </mxCell>
        <mxCell id="xaztZXbOCxgPHAclLVbQ-6" value="" style="edgeStyle=orthogonalEdgeStyle;rounded=0;orthogonalLoop=1;jettySize=auto;html=1;exitX=0;exitY=0.5;exitDx=0;exitDy=0;" edge="1" parent="1" source="xaztZXbOCxgPHAclLVbQ-3" target="xaztZXbOCxgPHAclLVbQ-5">
          <mxGeometry relative="1" as="geometry" />
        </mxCell>
        <mxCell id="xaztZXbOCxgPHAclLVbQ-10" value="" style="edgeStyle=orthogonalEdgeStyle;rounded=0;orthogonalLoop=1;jettySize=auto;html=1;entryX=0.5;entryY=0;entryDx=0;entryDy=0;exitX=1;exitY=0.5;exitDx=0;exitDy=0;" edge="1" parent="1" source="xaztZXbOCxgPHAclLVbQ-3" target="xaztZXbOCxgPHAclLVbQ-9">
          <mxGeometry relative="1" as="geometry" />
        </mxCell>
        <mxCell id="xaztZXbOCxgPHAclLVbQ-3" value="if (arr[mid] &amp;lt; key)" style="rhombus;whiteSpace=wrap;html=1;" vertex="1" parent="1">
          <mxGeometry x="480" y="440" width="160" height="40" as="geometry" />
        </mxCell>
        <mxCell id="xaztZXbOCxgPHAclLVbQ-12" style="edgeStyle=orthogonalEdgeStyle;rounded=0;orthogonalLoop=1;jettySize=auto;html=1;exitX=0.5;exitY=1;exitDx=0;exitDy=0;" edge="1" parent="1" source="xaztZXbOCxgPHAclLVbQ-5">
          <mxGeometry relative="1" as="geometry">
            <mxPoint x="559.9999999999998" y="540.0000000000001" as="targetPoint" />
            <Array as="points">
              <mxPoint x="420" y="540" />
            </Array>
          </mxGeometry>
        </mxCell>
        <mxCell id="xaztZXbOCxgPHAclLVbQ-5" value="left = mid + 1;" style="whiteSpace=wrap;html=1;" vertex="1" parent="1">
          <mxGeometry x="360" y="480" width="120" height="40" as="geometry" />
        </mxCell>
        <mxCell id="xaztZXbOCxgPHAclLVbQ-7" value="1" style="text;html=1;align=center;verticalAlign=middle;resizable=0;points=[];autosize=1;strokeColor=none;fillColor=none;" vertex="1" parent="1">
          <mxGeometry x="420" y="430" width="30" height="30" as="geometry" />
        </mxCell>
        <mxCell id="xaztZXbOCxgPHAclLVbQ-8" value="0" style="text;html=1;align=center;verticalAlign=middle;resizable=0;points=[];autosize=1;strokeColor=none;fillColor=none;" vertex="1" parent="1">
          <mxGeometry x="530" y="350" width="30" height="30" as="geometry" />
        </mxCell>
        <mxCell id="xaztZXbOCxgPHAclLVbQ-13" style="edgeStyle=orthogonalEdgeStyle;rounded=0;orthogonalLoop=1;jettySize=auto;html=1;" edge="1" parent="1" source="xaztZXbOCxgPHAclLVbQ-9">
          <mxGeometry relative="1" as="geometry">
            <mxPoint x="559.9999999999998" y="540.0000000000001" as="targetPoint" />
            <Array as="points">
              <mxPoint x="700" y="540" />
            </Array>
          </mxGeometry>
        </mxCell>
        <mxCell id="xaztZXbOCxgPHAclLVbQ-9" value="right = mid - 1;" style="whiteSpace=wrap;html=1;" vertex="1" parent="1">
          <mxGeometry x="640" y="480" width="120" height="40" as="geometry" />
        </mxCell>
        <mxCell id="xaztZXbOCxgPHAclLVbQ-11" value="0" style="text;html=1;align=center;verticalAlign=middle;resizable=0;points=[];autosize=1;strokeColor=none;fillColor=none;" vertex="1" parent="1">
          <mxGeometry x="670" y="430" width="30" height="30" as="geometry" />
        </mxCell>
        <mxCell id="xaztZXbOCxgPHAclLVbQ-15" value="" style="endArrow=classic;html=1;rounded=0;" edge="1" parent="1">
          <mxGeometry width="50" height="50" relative="1" as="geometry">
            <mxPoint x="560" y="540" as="sourcePoint" />
            <mxPoint x="400" y="580" as="targetPoint" />
            <Array as="points">
              <mxPoint x="560" y="580" />
            </Array>
          </mxGeometry>
        </mxCell>
        <mxCell id="xaztZXbOCxgPHAclLVbQ-16" value="" style="endArrow=classic;html=1;rounded=0;" edge="1" parent="1">
          <mxGeometry width="50" height="50" relative="1" as="geometry">
            <mxPoint x="400" y="580" as="sourcePoint" />
            <mxPoint x="400" y="180" as="targetPoint" />
            <Array as="points">
              <mxPoint x="400" y="600" />
              <mxPoint x="160" y="600" />
              <mxPoint x="160" y="380" />
              <mxPoint x="160" y="180" />
            </Array>
          </mxGeometry>
        </mxCell>
        <mxCell id="xaztZXbOCxgPHAclLVbQ-17" value="}" style="text;html=1;align=center;verticalAlign=middle;resizable=0;points=[];autosize=1;strokeColor=none;fillColor=none;" vertex="1" parent="1">
          <mxGeometry x="399" y="578" width="30" height="30" as="geometry" />
        </mxCell>
        <mxCell id="xaztZXbOCxgPHAclLVbQ-18" value="return -1;" style="ellipse;whiteSpace=wrap;html=1;" vertex="1" parent="1">
          <mxGeometry x="540" y="240" width="120" height="40" as="geometry" />
        </mxCell>
        <mxCell id="xaztZXbOCxgPHAclLVbQ-20" value="}" style="text;html=1;align=center;verticalAlign=middle;resizable=0;points=[];autosize=1;strokeColor=none;fillColor=none;" vertex="1" parent="1">
          <mxGeometry x="600" y="280" width="30" height="30" as="geometry" />
        </mxCell>
        <mxCell id="xaztZXbOCxgPHAclLVbQ-21" value="0" style="text;html=1;align=center;verticalAlign=middle;resizable=0;points=[];autosize=1;strokeColor=none;fillColor=none;" vertex="1" parent="1">
          <mxGeometry x="570" y="190" width="30" height="30" as="geometry" />
        </mxCell>
      </root>
    </mxGraphModel>
  </diagram>
</mxfile>
